PathFileType	4	(X/Y/Z)	./resultDataOpenSim/trcMotMarkerGrf/sub09/qtm-15-08.trc
DataRate	CameraRate	NumFrames	NumMarkers	Units	OrigDataRate	OrigDataStartFrame	OrigNumFrames
250.000000	250.000000	11	24	m	250.000000	175	466
Frame#	Time	L.Toe.Tip			R.Toe.Tip			L.Ankle.Lat			R.Ankle.Lat			L.Ankle.Med			R.Ankle.Med			L.Heel			R.Heel			L.Knee.Lat			R.Knee.Lat			L.Knee.Med			R.Knee.Med			L.Thigh.Upper			R.Thigh.Upper			L.ASIS			R.ASIS			V.Sacral			L.Acromium			R.Acromium			C7			L.Elbow			R.Elbow			L.Wrist.Lat			R.Wrist.Lat
		X1	Y1	Z1	X2	Y2	Z2	X3	Y3	Z3	X4	Y4	Z4	X5	Y5	Z5	X6	Y6	Z6	X7	Y7	Z7	X8	Y8	Z8	X9	Y9	Z9	X10	Y10	Z10	X11	Y11	Z11	X12	Y12	Z12	X13	Y13	Z13	X14	Y14	Z14	X15	Y15	Z15	X16	Y16	Z16	X17	Y17	Z17	X18	Y18	Z18	X19	Y19	Z19	X20	Y20	Z20	X21	Y21	Z21	X22	Y22	Z22	X23	Y23	Z23	X24	Y24	Z24

175	0.696	0.12073209	-0.05706471	0.022930993	-0.62574961	0.055097809	0.073595167	-0.019649925	-0.029867605	-0.049700856	-0.69494448	0.19039364	0.1089215	-0.019256412	-0.0075394726	0.048637167	-0.63718177	0.19326638	0.028632836	-0.094659281	-0.067269012	-0.020962565	-0.73508057	0.22645564	0.042997258	-0.01775728	0.38542807	-0.096418299	-0.30535109	0.42002653	0.20953999	-0.04298218	0.3814434	0.027744508	-0.2889626	0.38833843	0.084759871	-0.13494494	0.79154722	-0.15476532	-0.24112356	0.81458032	0.2075176	-0.073625586	0.88380767	-0.082184736	-0.11479687	0.88715875	0.1555963	-0.25888854	0.93061236	-0.0071681555	-0.13610517	1.343514	-0.14671249	-0.19149878	1.3555195	0.17744271	-0.23173985	1.387023	0.0097336586	-0.29242115	1.0186328	-0.20472631	-0.28390172	0.99356188	0.27641987	-0.21353546	0.77568813	-0.26499049	-0.034303566	0.86668589	0.25763624
176	0.7	0.12246625	-0.058298393	0.024620042	-0.62235415	0.057351394	0.074280918	-0.018085322	-0.029814688	-0.047813509	-0.6858001	0.19580369	0.10916726	-0.018044121	-0.0085835886	0.050755782	-0.62740551	0.19653946	0.028924543	-0.09399404	-0.065374835	-0.019037965	-0.72438098	0.23326862	0.042720823	-0.012423782	0.38340518	-0.096486923	-0.29393619	0.41688415	0.21149754	-0.039466931	0.37856754	0.027250686	-0.27562664	0.3836755	0.087259666	-0.12522722	0.78818736	-0.15496719	-0.23285583	0.8124955	0.20668197	-0.065650164	0.88060196	-0.081865242	-0.1064521	0.88471246	0.15538614	-0.25152662	0.9297363	-0.0073650909	-0.12742538	1.3414953	-0.14734797	-0.18552642	1.3532963	0.176172	-0.22486433	1.3842311	0.0084377809	-0.28448728	1.01705	-0.2056073	-0.27946468	0.99222685	0.27596394	-0.2045931	0.77404071	-0.2651211	-0.030318524	0.86405882	0.25853073
177	0.704	0.12371349	-0.058667919	0.025680353	-0.61844693	0.059745845	0.074932825	-0.0166194	-0.028703316	-0.046843113	-0.67607626	0.20117997	0.10968761	-0.016914963	-0.0086217771	0.051718811	-0.6173782	0.19982017	0.029074924	-0.093247792	-0.063247433	-0.018133361	-0.71327531	0.24005531	0.042611062	-0.0054933964	0.38363278	-0.096163482	-0.28235858	0.41364324	0.21315783	-0.033800669	0.37851501	0.027266722	-0.26216915	0.37908267	0.089448361	-0.11599542	0.78492809	-0.15530261	-0.22374831	0.80996856	0.20533368	-0.058261073	0.87733209	-0.081609387	-0.098143722	0.88215047	0.15513142	-0.24482605	0.92950734	-0.0073964927	-0.11860928	1.3393589	-0.14807399	-0.17953038	1.3510166	0.1750061	-0.21786511	1.3817244	0.006967447	-0.2765163	1.015347	-0.20645973	-0.27508054	0.99072664	0.27551225	-0.1955579	0.77227819	-0.26525822	-0.026362357	0.86139839	0.25945424
178	0.708	0.12430485	-0.058721691	0.026173219	-0.61403475	0.062304952	0.075642525	-0.015443925	-0.027375515	-0.046709864	-0.66590008	0.20654033	0.11034552	-0.016083064	-0.0079168652	0.051679262	-0.60699477	0.20321961	0.029193269	-0.092611277	-0.061633125	-0.018309366	-0.70179629	0.24691722	0.042714382	0.0029057659	0.38542019	-0.095516325	-0.27055081	0.41030244	0.21457372	-0.026199617	0.38090064	0.027747534	-0.24855339	0.37471278	0.09125124	-0.10756324	0.78240395	-0.15582101	-0.21402248	0.80710641	0.20367828	-0.051391059	0.87407687	-0.081520768	-0.090045283	0.87953342	0.15476896	-0.23827847	0.92936353	-0.0077312974	-0.10967316	1.3371237	-0.14889099	-0.17353426	1.3487132	0.17399103	-0.21053062	1.3795802	0.0052753976	-0.26847522	1.013504	-0.20720615	-0.27065992	0.98905446	0.27501946	-0.18643212	0.77039546	-0.26537846	-0.022440667	0.85870992	0.26042059
179	0.712	0.12452783	-0.0587691	0.026262474	-0.60909881	0.065041932	0.076479205	-0.014610168	-0.026282658	-0.047031861	-0.65534147	0.21189608	0.11094458	-0.015388894	-0.0068703546	0.05116846	-0.59618537	0.20685654	0.029360758	-0.092082266	-0.060652854	-0.018923344	-0.68994496	0.25388543	0.043075525	0.012222276	0.38770213	-0.094800078	-0.25840716	0.40687866	0.21573445	-0.017357317	0.38460529	0.028268646	-0.23475193	0.37077123	0.092634936	-0.10022209	0.78114719	-0.15657406	-0.20449541	0.80413877	0.20227629	-0.044956136	0.87099147	-0.081654582	-0.082310231	0.87692051	0.15427255	-0.23162004	0.92904073	-0.0083436847	-0.10062842	1.3348165	-0.14976326	-0.16756735	1.3464108	0.17314121	-0.20275245	1.3778229	0.0035079035	-0.26031464	1.0115084	-0.20789161	-0.26604427	0.98724063	0.27441374	-0.1772281	0.7683904	-0.26546233	-0.018541046	0.85599473	0.26143719
180	0.716	0.12480426	-0.058894638	0.026078652	-0.60357538	0.06797585	0.077493825	-0.013986502	-0.025491291	-0.04739565	-0.64437663	0.2172559	0.11131224	-0.014524925	-0.0059122197	0.050706746	-0.58498712	0.21075816	0.029538588	-0.091508772	-0.060109227	-0.019374699	-0.67765354	0.26081718	0.043642087	0.021813294	0.38963878	-0.094251929	-0.24581095	0.4034272	0.21657771	-0.0079330472	0.38857392	0.028479235	-0.22074772	0.36744452	0.093595401	-0.094091012	0.78118632	-0.15763698	-0.19595645	0.80113502	0.20168354	-0.03886706	0.86831884	-0.082012505	-0.074997148	0.87437046	0.15365535	-0.22498415	0.92862037	-0.0086914439	-0.0914799	1.3324757	-0.15062452	-0.16164429	1.3441486	0.17244876	-0.19459653	1.3764851	0.0019499854	-0.25198469	1.0093616	-0.20862101	-0.26111082	0.98535605	0.27363623	-0.16794757	0.76627777	-0.26549925	-0.01464866	0.85324277	0.26250072
181	0.72	0.12533986	-0.059059269	0.025768813	-0.59724451	0.071180637	0.078712127	-0.013337928	-0.024951613	-0.047582122	-0.63296386	0.22261889	0.11135084	-0.013333645	-0.0052964713	0.050518712	-0.5734591	0.2148415	0.029664289	-0.090765748	-0.059828463	-0.019511788	-0.6648453	0.26749541	0.044217817	0.031165514	0.39078198	-0.093962604	-0.23269558	0.40004671	0.21709462	0.0016327766	0.39201903	0.0283352	-0.20659886	0.36480737	0.094149411	-0.089058503	0.78205137	-0.15905685	-0.18852849	0.79800899	0.2019917	-0.033017165	0.86631621	-0.082562356	-0.068067927	0.87194423	0.15296192	-0.21864249	0.92822145	-0.0080910365	-0.082231312	1.3301593	-0.15140022	-0.15572972	1.3419933	0.17189624	-0.18617061	1.3755716	0.00071848402	-0.2434443	1.0070814	-0.2095117	-0.25592602	0.98348197	0.27269162	-0.15857119	0.76409466	-0.26548009	-0.010771794	0.85044789	0.26359898
182	0.724	0.12600218	-0.059212468	0.025534528	-0.58976733	0.074761763	0.080125444	-0.012548896	-0.024675773	-0.047657587	-0.62111185	0.22796979	0.11107406	-0.011973134	-0.0050226698	0.050485899	-0.56161441	0.21901442	0.029739385	-0.089911264	-0.059751797	-0.019556956	-0.65156827	0.27383514	0.044583763	0.039914557	0.39102224	-0.093922914	-0.21907256	0.39687743	0.21737342	0.011038594	0.39433413	0.027993571	-0.1924468	0.36279168	0.094352356	-0.08488132	0.78316858	-0.16074657	-0.18164629	0.79474589	0.20273569	-0.027269695	0.86513004	-0.083247329	-0.061440537	0.8696953	0.15225079	-0.21241732	0.92783659	-0.0062712052	-0.072901423	1.327942	-0.15203428	-0.14973378	1.3400239	0.17145743	-0.1775352	1.3749682	-0.00032453275	-0.23466242	1.0047173	-0.21061353	-0.25069828	0.9816871	0.27163574	-0.14907276	0.76189093	-0.26538994	-0.0069547643	0.84762972	0.2647136
183	0.728	0.12651648	-0.059343758	0.025492175	-0.58094015	0.07874031	0.08171759	-0.011688977	-0.024712354	-0.047841505	-0.6088558	0.23328082	0.11058239	-0.010795877	-0.0049376898	0.050332856	-0.54944529	0.22324272	0.029773301	-0.089152498	-0.059843589	-0.019829038	-0.63800995	0.27987705	0.044647407	0.047841166	0.39050451	-0.094096167	-0.20501198	0.39404799	0.21753848	0.02008782	0.3952042	0.027637602	-0.17843431	0.36126184	0.094340079	-0.081248106	0.78417678	-0.16244176	-0.17471896	0.79144874	0.20338122	-0.021471543	0.86471597	-0.083993561	-0.055046959	0.86765428	0.15156705	-0.20544753	0.92730152	-0.0037923249	-0.063530893	1.3258935	-0.15250401	-0.14354184	1.3382995	0.17108996	-0.16878002	1.37446	-0.0013355868	-0.22561591	1.0023593	-0.21184572	-0.24555	0.98003124	0.27050349	-0.1394364	0.75971603	-0.26520834	-0.0032537309	0.8448267	0.26582183
184	0.732	0.12673899	-0.059464587	0.025568265	-0.57083773	0.083019042	0.083520308	-0.01086611	-0.025065275	-0.048289556	-0.59619055	0.23851775	0.11000857	-0.010058514	-0.0048984128	0.049873447	-0.53696039	0.2275223	0.029741646	-0.088647005	-0.060004883	-0.020521694	-0.62438174	0.28562609	0.044465241	0.054901568	0.38947111	-0.094423833	-0.19061775	0.3916112	0.21765993	0.028716759	0.39472834	0.027371949	-0.16468094	0.36011299	0.094318452	-0.077758661	0.78492512	-0.16379017	-0.16762254	0.78823462	0.20375326	-0.015501146	0.86487543	-0.08472942	-0.048850164	0.8658223	0.15093552	-0.19709925	0.92640053	-0.0016282285	-0.054164463	1.3240569	-0.15281547	-0.13704334	1.3368441	0.17074008	-0.16005782	1.3738611	-0.0023453555	-0.21630074	1.0001053	-0.21309486	-0.24044117	0.978578	0.26928302	-0.12965013	0.75761179	-0.26491756	0.00030408616	0.8420815	0.26690523
185	0.736	0.12671764	-0.059580809	0.025621797	-0.55972462	0.087499939	0.085603803	-0.010093618	-0.025672618	-0.048979829	-0.58307461	0.24365357	0.10949372	-0.0097573207	-0.0048514936	0.049124631	-0.52417782	0.23183321	0.029622177	-0.088387246	-0.060113982	-0.021619843	-0.61079112	0.29103693	0.044179678	0.061229557	0.38809752	-0.094824994	-0.17599777	0.38955193	0.21773254	0.036947878	0.3932868	0.027213433	-0.15124693	0.35927943	0.094442752	-0.074010781	0.78534012	-0.16452248	-0.16051957	0.78518785	0.20394067	-0.0093190833	0.86535436	-0.085411647	-0.042818737	0.86417931	0.15037789	-0.1881864	0.92513557	-0.00012840021	-0.044831662	1.3224452	-0.1529885	-0.13015828	1.3356552	0.17036795	-0.15150518	1.3731181	-0.0033106392	-0.20675248	0.99801577	-0.2143651	-0.2353142	0.97740056	0.26795793	-0.11968214	0.75561204	-0.26451606	0.003739068	0.83943817	0.26796368
